<?xml version="1.0" encoding="utf-8"?>
<!-- Generator: Adobe Illustrator 20.1.0, SVG Export Plug-In . SVG Version: 6.00 Build 0)  -->
<!DOCTYPE svg PUBLIC "-//W3C//DTD SVG 1.1//EN" "http://www.w3.org/Graphics/SVG/1.1/DTD/svg11.dtd">
<svg version="1.1" xmlns="http://www.w3.org/2000/svg" xmlns:xlink="http://www.w3.org/1999/xlink" x="0px" y="0px"
	 viewBox="0 0 66.3 79" style="enable-background:new 0 0 66.3 79;" xml:space="preserve">
<style type="text/css">
	.st0{fill:#FFFFFF;}
</style>
<g id="Calque_1">
</g>
<g id="Layer_1">
	<path class="st0" d="M53.6,5.3H42.9c-0.8,0-1.5,0.7-1.5,1.5V20c0,0.8,0.7,1.5,1.5,1.5h1.5V53l0,0.7c-0.1,6.6-5.6,12-12.2,11.9
		c-6.6-0.1-12-5.6-11.9-12.2c0,0,0-3.9,0-4.2c2.4,1,4.8,2.5,8,6.3c0.3,0.3,0.7,0.5,1.1,0.5c0,0,0,0,0,0c0.8,0,1.5-0.7,1.5-1.5
		c0-0.1,0-0.2,0-0.3c-0.2-1.7-1.5-5.2-9.8-15.4c-4.5-5.6-6.9-6.7-7.5-6.5c-0.6,0.2-1,0.8-1,1.4l-0.1,19.5c0,0,0,0.1,0,0.1l0,0
		c-0.2,10.9,8.6,19.9,19.5,20c10.9,0.2,19.9-8.6,20-19.5c0,0,0-0.1,0-0.1c0-0.1,0-0.1,0-0.2v-32h1.5c0.8,0,1.5-0.7,1.5-1.5V6.8
		C55.2,6,54.5,5.3,53.6,5.3z M49.7,53l0,0.8c-0.1,9.5-8,17.2-17.5,17c-9-0.1-16.4-7.2-17-16l0.6-17.2c1.7,2,11.3,10.3,12,13.7
		c-1.3-1-5.6-4.8-6.6-5.1c-0.2-0.1-0.7-0.3-1.2-0.3c-0.7,0-1.4,0.3-1.9,0.8c-0.7,0.8-0.4,4.9-0.2,6.6l0,0c0.3,8,6.3,14.6,14.3,14.7
		c8,0.1,14.6-6.3,14.7-14.3c0,0,0,0,0-0.1c0-0.1,0-0.1,0-0.2v-32h2.8V53z M52.1,18.5h-7.7V8.3h7.7V18.5z"/>
</g>
</svg>
