<?xml version="1.0" encoding="utf-8"?>
<!-- Generator: Adobe Illustrator 20.1.0, SVG Export Plug-In . SVG Version: 6.00 Build 0)  -->
<!DOCTYPE svg PUBLIC "-//W3C//DTD SVG 1.1//EN" "http://www.w3.org/Graphics/SVG/1.1/DTD/svg11.dtd">
<svg version="1.1" id="_x34_222095d-98de-42d5-9f1f-cd455d69c4f7"
	 xmlns="http://www.w3.org/2000/svg" xmlns:xlink="http://www.w3.org/1999/xlink" x="0px" y="0px" viewBox="0 0 66.3 79"
	 style="enable-background:new 0 0 66.3 79;" xml:space="preserve">
<style type="text/css">
	.st0{fill:#FFFFFF;}
</style>
<title>Plan de travail 1 copie 3</title>
<path class="st0" d="M35.7,65.1c0,1.3-1.1,2.4-2.4,2.4c-1.3,0-2.4-1.1-2.4-2.4c0-1.3,1.1-2.4,2.4-2.4l0,0
	C34.6,62.7,35.7,63.8,35.7,65.1 M24.9,56.5h7.4v4.6c-2.2,0.5-3.6,2.8-3,5c0.4,1.5,1.5,2.6,3,3V78H34v-8.8c2.3-0.3,3.8-2.4,3.5-4.7
	c-0.3-1.8-1.7-3.2-3.5-3.5v-4.5h7.4v-1.7H24.9V56.5z"/>
<path class="st0" d="M42,48.6c-5.5,2.8-12.1,2.8-17.6,0c-1.5-0.7-2.9-1.7-4.1-2.8h25.8C44.9,46.9,43.5,47.8,42,48.6 M31.2,9.2
	l1.9-5.2l1.9,5.2H31.2z M16.7,19.2l3.8-5V19c0,0,0,0.1,0,0.1L16.7,19.2z M45.9,19.1v-4.8l3.8,5l-3.8-0.1V19.1 M46,20.9l7.1,0.1
	l-9-11.9V19c0,3.9,2.1,7,3.4,9c2.5,3.7,3.3,7.7,2.4,11.4c-0.4,1.6-1.2,3.2-2.2,4.6H34V10.9h3.5L33.2-1l-4.4,11.9h3.5V44H18.7
	c-1.1-1.4-1.9-2.9-2.3-4.6c-1-3.7-0.2-7.7,2.4-11.4c1.4-2,3.4-5.1,3.4-9V9.1l-9,11.9l7.1-0.1c-0.6,2.2-1.6,4.4-3,6.2
	c-2.8,4.1-3.7,8.6-2.6,12.8c1.3,4.5,4.6,8.3,8.9,10.3c6,3.1,13.1,3.1,19.1,0c4.3-2,7.6-5.7,8.9-10.3c1.1-4.2,0.2-8.7-2.6-12.8
	C47.6,25.2,46.6,23.1,46,20.9"/>
</svg>
