<?xml version="1.0" encoding="utf-8"?>
<!-- Generator: Adobe Illustrator 20.1.0, SVG Export Plug-In . SVG Version: 6.00 Build 0)  -->
<!DOCTYPE svg PUBLIC "-//W3C//DTD SVG 1.1//EN" "http://www.w3.org/Graphics/SVG/1.1/DTD/svg11.dtd">
<svg version="1.1" id="Calque_1" xmlns="http://www.w3.org/2000/svg" xmlns:xlink="http://www.w3.org/1999/xlink" x="0px" y="0px"
	 viewBox="0 0 66.3 79" style="enable-background:new 0 0 66.3 79;" xml:space="preserve">
<style type="text/css">
	.st0{fill:#FFFFFF;}
</style>
<g id="Calque_1_1_">
</g>
<g>
	<path class="st0" d="M43.7,30.2h0.7c3.8,0,6.8-3.1,6.8-6.8s-3.1-6.8-6.8-6.8c-3.8,0-6.8,3.1-6.8,6.8h2.2c0-2.6,2.1-4.7,4.7-4.7
		c2.6,0,4.7,2.1,4.7,4.7S46.9,28,44.3,28h-0.7h-0.6H4.9v2.2h38.1H43.7z"/>
	<path class="st0" d="M55.3,30.8c-4,0-7.2,3.2-7.2,7.2v1.6h2.2V38c0-2.8,2.3-5,5-5c2.8,0,5,2.3,5,5c0,2.8-2.3,5-5,5H4.9v2.2h50.4
		c4,0,7.2-3.2,7.2-7.2C62.5,34,59.3,30.8,55.3,30.8z"/>
	<path class="st0" d="M41.4,50.6h-1.7H4.2v2.2h35.6h1.7c2.1,0,3.8,1.7,3.8,3.8s-1.7,3.8-3.8,3.8s-3.8-1.7-3.8-3.8h-2.2
		c0,3.3,2.7,6,6,6s6-2.7,6-6S44.8,50.6,41.4,50.6z"/>
	<path class="st0" d="M33.4,37.7h0.4c3.3,0,6-2.7,6-6h-2.2c0,2.1-1.7,3.8-3.8,3.8h-0.4h-0.7H4.2v2.2h28.5H33.4z"/>
</g>
</svg>
