<?xml version="1.0" encoding="utf-8"?>
<!-- Generator: Adobe Illustrator 20.1.0, SVG Export Plug-In . SVG Version: 6.00 Build 0)  -->
<!DOCTYPE svg PUBLIC "-//W3C//DTD SVG 1.1//EN" "http://www.w3.org/Graphics/SVG/1.1/DTD/svg11.dtd">
<svg version="1.1" id="_x32_8a200bc-e836-4a7b-ac97-d3505c78fd5f"
	 xmlns="http://www.w3.org/2000/svg" xmlns:xlink="http://www.w3.org/1999/xlink" x="0px" y="0px" viewBox="0 0 66.3 79"
	 style="enable-background:new 0 0 66.3 79;" xml:space="preserve">
<style type="text/css">
	.st0{fill:#FFFFFF;}
</style>
<title>Plan de travail 1 copie 5</title>
<path class="st0" d="M33.2,65.5c-6.5,0-12.8-2-18-5.8c-4.1-3-7.5-6.9-9.8-11.5c-2.1-4.3-3.2-9-3.2-13.7c0-0.7,0-1.3,0.1-2l1.6,0.1
	c0,0.7-0.1,1.3-0.1,1.9c0,4.5,1,9,3,13c2.2,4.3,5.3,8.1,9.3,10.9c5,3.6,10.9,5.5,17,5.5L33.2,65.5z"/>
<path class="st0" d="M4.2,30.1l-1.6-0.2c0.2-1.4,0.5-2.7,0.9-4L5,26.3C4.6,27.6,4.4,28.9,4.2,30.1"/>
<path class="st0" d="M59.5,21.5c-3.1-5.2-7.3-8.4-10.8-8.4v-1.6c4.2,0,8.8,3.5,12.2,9.1L59.5,21.5z"/>
<path class="st0" d="M33.2,65.5c-6.5,0-12.8-2-18-5.8l0.9-1.3c13.2,9.4,31.5,6.4,40.9-6.8c3.6-5,5.5-11,5.5-17.1c0-4.5-1-9-3.1-13.1
	l1.5-0.7c7.6,15.3,1.4,33.9-14,41.6C42.6,64.4,37.9,65.5,33.2,65.5"/>
<path class="st0" d="M33.4,56.5l-1.3-0.9c5-7.1,3.3-16.9-3.8-22c-2.7-1.9-5.8-2.9-9.1-2.9h-1.6c-2.4-0.1-4.2-2.1-4.1-4.5
	c0.1-2.2,1.9-4,4.1-4.1h6.1v1.6h-6.1c-1.5,0-2.7,1.2-2.7,2.7c0,1.5,1.2,2.7,2.7,2.7c0,0,0,0,0,0h1.6c9.6,0,17.4,7.8,17.4,17.4
	C36.6,50.1,35.5,53.6,33.4,56.5"/>
<path class="st0" d="M39.1,56.7l-1-1.3c6.9-5.3,8.3-15.1,3-22.1c-3-3.9-7.6-6.2-12.5-6.2h-1.6c-2.4,0-4.3-1.9-4.3-4.3
	s1.9-4.3,4.3-4.3H33v1.6h-6.1c-1.5,0-2.7,1.2-2.7,2.7c0,1.5,1.2,2.7,2.7,2.7c0,0,0,0,0,0h1.6c9.6,0,17.4,7.8,17.4,17.4
	C45.9,48.2,43.4,53.4,39.1,56.7"/>
<path class="st0" d="M62.2,30.2c-2.3-6.1-8.2-10.1-14.7-10.1h-1.6c-2.4-0.1-4.2-2.1-4.1-4.5c0.1-2.2,1.9-4,4.1-4.1h2.8v1.6h-2.8
	c-1.5,0-2.7,1.2-2.7,2.7s1.2,2.7,2.7,2.7l0,0h1.6c7.2,0,13.7,4.5,16.2,11.2L62.2,30.2z"/>
<path class="st0" d="M38,56.8H12.4v-1.6H38c8.7,0,15.8-7.1,15.8-15.8S46.7,23.7,38,23.7h-1.7c-2.4,0-4.3-1.9-4.3-4.3
	s1.9-4.3,4.3-4.3h6.1v1.6h-6.1c-1.5,0-2.7,1.2-2.7,2.7c0,1.5,1.2,2.7,2.7,2.7c0,0,0,0,0,0H38c9.6,0.2,17.2,8.2,17,17.8
	C54.7,49.2,47.3,56.6,38,56.8"/>
<rect x="18.5" y="59.6" class="st0" width="12.9" height="1.6"/>
<rect x="35.2" y="59.6" class="st0" width="4.3" height="1.6"/>
</svg>
