<?xml version="1.0" encoding="utf-8"?>
<!-- Generator: Adobe Illustrator 20.1.0, SVG Export Plug-In . SVG Version: 6.00 Build 0)  -->
<!DOCTYPE svg PUBLIC "-//W3C//DTD SVG 1.1//EN" "http://www.w3.org/Graphics/SVG/1.1/DTD/svg11.dtd">
<svg version="1.1" id="b2f89a6d-cbe2-496f-8302-d801065e9e1c"
	 xmlns="http://www.w3.org/2000/svg" xmlns:xlink="http://www.w3.org/1999/xlink" x="0px" y="0px" viewBox="0 0 66.3 79"
	 style="enable-background:new 0 0 66.3 79;" xml:space="preserve">
<style type="text/css">
	.st0{fill:#FFFFFF;}
</style>
<title>Plan de travail 1 copie</title>
<path class="st0" d="M49.5,69h-34v-6.5c0-5.4,4.4-9.8,9.9-9.8h14.2c5.4,0,9.9,4.4,9.9,9.8L49.5,69z M23.6,51v-3.2h17.7V51H23.6z
	 M30.4,37.6c-9.2-1.2-15.7-9.6-14.5-18.8S25.4,3.1,34.6,4.3c4.7,0.6,8.9,3.2,11.7,7.1l-2.2,1.4c-4.5-6.5-13.5-8.1-19.9-3.5
	s-8.1,13.5-3.5,19.9c2.7,3.8,7.1,6.1,11.8,6.1h1.3v10.9h-2.6v-8.4L30.4,37.6z M51.2,62.5c0-5.1-3.3-9.5-8.1-11v-5.4h-7.6V33.5h-3
	c-6.9-0.1-12.5-5.7-12.5-12.6C20,14,25.7,8.4,32.6,8.4c4.3,0,8.3,2.3,10.5,5.9l0.5,0.7l5.1-3.2l-0.5-0.7C42.8,2.4,31.4-0.3,22.6,5
	s-11.5,16.8-6.1,25.6c2.8,4.6,7.6,7.8,12.9,8.6v6.9h-7.5v5.4c-4.8,1.5-8.1,5.9-8.1,11v8.2h37.4V62.5z"/>
<rect x="11.4" y="72.8" class="st0" width="42.3" height="1.7"/>
<path class="st0" d="M22.8,62.5c-1.5,0-2.7-1.2-2.7-2.7c0-1.5,1.2-2.7,2.7-2.7c1.5,0,2.7,1.2,2.7,2.7C25.5,61.3,24.3,62.5,22.8,62.5
	 M22.8,55.4c-2.4,0-4.4,2-4.4,4.4s2,4.4,4.4,4.4c2.4,0,4.4-2,4.4-4.4C27.2,57.4,25.2,55.4,22.8,55.4"/>
</svg>
