<?xml version="1.0" encoding="utf-8"?>
<!-- Generator: Adobe Illustrator 20.1.0, SVG Export Plug-In . SVG Version: 6.00 Build 0)  -->
<!DOCTYPE svg PUBLIC "-//W3C//DTD SVG 1.1//EN" "http://www.w3.org/Graphics/SVG/1.1/DTD/svg11.dtd">
<svg version="1.1" xmlns="http://www.w3.org/2000/svg" xmlns:xlink="http://www.w3.org/1999/xlink" x="0px" y="0px"
	 viewBox="0 0 66.3 79" style="enable-background:new 0 0 66.3 79;" xml:space="preserve">
<style type="text/css">
	.st0{fill:#FFFFFF;}
</style>
<g id="ddc468a8-b737-428b-9ab8-29ad966e097a">
	<title>Plan de travail 1</title>
	<g>
		<path class="st0" d="M8.3,49.3c0.5,0,0.8,0.3,0.9,0.8c1.7,13.5,14.1,23.1,27.7,21.4C48.1,70,56.9,61.1,58.2,49.9
			c0.1-0.5,0.5-0.9,1-0.8c0.2,0,0.4,0.1,0.5,0.3l3.1,3.1l1.2-1.2l-6.5-6.5l-7.2,5l0.9,1.3l2.8-2c0.4-0.3,1-0.2,1.3,0.2
			c0.1,0.2,0.2,0.4,0.2,0.7c-1.3,10-9.3,17.8-19.3,18.8c-0.5,0.1-0.9-0.3-1-0.8c0,0,0-0.1,0-0.1V29.6h-2.8v38.3
			c0,0.3-0.1,0.5-0.3,0.7c-0.2,0.2-0.4,0.3-0.7,0.2c-10.1-1.1-18.1-8.9-19.4-19c-0.1-0.5,0.3-0.9,0.8-1c0.2,0,0.5,0,0.6,0.2l3.1,2.2
			l0.9-1.3l-7.2-5l-6.5,6.5l1.2,1.2l2.8-2.8C7.8,49.4,8,49.3,8.3,49.3 M33.7,73.5c-12.7,0-23.5-9-26-21.4l-2.2,2.2
			c-0.3,0.4-0.9,0.4-1.3,0c0,0,0,0,0,0l-2.4-2.4c-0.4-0.3-0.4-0.9,0-1.3c0,0,0,0,0,0L9.4,43c0.3-0.3,0.8-0.3,1.1-0.1l8.6,6
			c0.4,0.3,0.5,0.8,0.2,1.2l-2,2.8c-0.3,0.4-0.8,0.5-1.3,0.2l-2.1-1.5c1.8,8,8.3,14,16.4,15.3V28.7c0-0.5,0.4-0.9,0.9-0.9H36
			c0.5,0,0.9,0.4,0.9,0.9c0,0,0,0,0,0v38.1c8-1.3,14.4-7.2,16.3-15l-1.8,1.2c-0.4,0.3-1,0.2-1.3-0.2l-2-2.8c-0.3-0.4-0.2-1,0.2-1.3
			l8.6-6c0.4-0.2,0.8-0.2,1.2,0.1l7.7,7.7c0.4,0.3,0.4,0.9,0,1.3c0,0,0,0,0,0l-2.4,2.4c-0.3,0.4-0.9,0.4-1.3,0c0,0,0,0,0,0l-2.5-2.5
			C57.4,64.4,46.5,73.5,33.7,73.5"/>
		<path class="st0" d="M33.7,11.9c-0.8,0-1.4,0.6-1.4,1.4s0.6,1.4,1.4,1.4s1.4-0.6,1.4-1.4l0,0C35.1,12.5,34.5,11.9,33.7,11.9
			 M33.7,16.5c-1.8,0-3.2-1.4-3.2-3.2s1.4-3.2,3.2-3.2c1.8,0,3.2,1.4,3.2,3.2v0C36.9,15,35.5,16.5,33.7,16.5 M32.3,23.2h2.8v-3.5
			c0-0.4,0.2-0.7,0.6-0.9c3.1-1.1,4.8-4.5,3.7-7.7c-1.1-3.1-4.5-4.8-7.7-3.7s-4.8,4.5-3.7,7.7c0.6,1.7,1.9,3.1,3.7,3.7
			c0.4,0.1,0.6,0.5,0.6,0.9L32.3,23.2z M36,25h-4.6c-0.5,0-0.9-0.4-0.9-0.9v-3.7c-3.9-1.8-5.7-6.4-3.9-10.3S33,4.4,36.9,6.1
			s5.7,6.4,3.9,10.3c-0.8,1.7-2.2,3.1-3.9,3.9v3.8C36.9,24.6,36.5,25.1,36,25L36,25"/>
		<path class="st0" d="M23.7,27.8h20V25h-20V27.8z M44.6,29.6H22.8c-0.5,0-0.9-0.4-0.9-0.9v-4.6c0-0.5,0.4-0.9,0.9-0.9h21.8
			c0.5,0,0.9,0.4,0.9,0.9c0,0,0,0,0,0v4.6C45.5,29.2,45.1,29.6,44.6,29.6L44.6,29.6"/>
	</g>
</g>
<g id="Calque_1">
</g>
</svg>
