<?xml version="1.0" encoding="utf-8"?>
<!-- Generator: Adobe Illustrator 20.1.0, SVG Export Plug-In . SVG Version: 6.00 Build 0)  -->
<!DOCTYPE svg PUBLIC "-//W3C//DTD SVG 1.1//EN" "http://www.w3.org/Graphics/SVG/1.1/DTD/svg11.dtd">
<svg version="1.1" xmlns="http://www.w3.org/2000/svg" xmlns:xlink="http://www.w3.org/1999/xlink" x="0px" y="0px"
	 viewBox="0 0 66.3 79" style="enable-background:new 0 0 66.3 79;" xml:space="preserve">
<style type="text/css">
	.st0{fill:none;stroke:#FFFFFF;stroke-width:1.5;stroke-miterlimit:10;}
</style>
<g id="_x38_f81844d-5aed-4e01-a142-3128506bb2c6">
	<title>Plan de travail 1 copie 4</title>
</g>
<g id="Calque_1">
	<ellipse class="st0" cx="33.2" cy="15.9" rx="29.5" ry="5.9"/>
	<path class="st0" d="M8.1,25.2c5.2,1.7,14.5,2.8,25.1,2.8c10.9,0,20.5-1.2,25.6-2.9"/>
	<path class="st0" d="M51.7,32.6C46.6,33.5,40.2,34,33.2,34c-9.3,0-17.6-0.9-23-2.2"/>
	<path class="st0" d="M8.8,37.4c5.3,1.5,14.2,2.5,24.3,2.5c4.1,0,8.1-0.2,11.6-0.5"/>
	<path class="st0" d="M37.1,45.8c-1.3,0-2.6,0.1-4,0.1c-9.3,0-17.6-0.9-23-2.2"/>
	<path class="st0" d="M33.2,51.8c-1.7,0-3.4,0-5.1-0.1c-5.6-0.2-10.7-0.7-14.8-1.5"/>
	<path class="st0" d="M33.2,57.8c-1.8,0-3.6,0-5.3-0.1c-3.2-0.1-6.1-0.3-8.9-0.6"/>
	<path class="st0" d="M26.8,63.6c2,0.1,4.2,0.1,6.3,0.1c1.2,0,1.3,0,2.4,0"/>
	<path class="st0" d="M32.9,69c0.8,0,1.8,0,1.8,0"/>
</g>
</svg>
