<?xml version="1.0" encoding="utf-8"?>
<!-- Generator: Adobe Illustrator 20.1.0, SVG Export Plug-In . SVG Version: 6.00 Build 0)  -->
<!DOCTYPE svg PUBLIC "-//W3C//DTD SVG 1.1//EN" "http://www.w3.org/Graphics/SVG/1.1/DTD/svg11.dtd">
<svg version="1.1" id="_x34_0932bc8-9dc4-4118-8e5c-a3b7049c4eba"
	 xmlns="http://www.w3.org/2000/svg" xmlns:xlink="http://www.w3.org/1999/xlink" x="0px" y="0px" viewBox="0 0 66.3 79"
	 style="enable-background:new 0 0 66.3 79;" xml:space="preserve">
<style type="text/css">
	.st0{fill:#FFFFFF;}
</style>
<title>Plan de travail 1 copie 2</title>
<path class="st0" d="M24.7,26.7l-1,12.2l19.8-5.4l-0.6-6.8H24.7z M21.6,41.4L23,24.9h21.6l0.9,10L21.6,41.4z"/>
<path class="st0" d="M22.4,54.5l-1,11.7l24.4-6.7l-1-11.1L22.4,54.5z M19.3,68.7l1.3-15.6L46.4,46l1.3,14.9L19.3,68.7z"/>
<path class="st0" d="M20.7,73.5h26.2l-1-12.1l-24.8,6.8L20.7,73.5z M49,75.4H18.7l0.7-8.6L47.6,59L49,75.4z"/>
<path class="st0" d="M23.5,40.9l-1,11.7l22.1-6l-1-11.1L23.5,40.9z M20.5,55l1.3-15.6L45.3,33l1.3,14.9L20.5,55z"/>
<rect x="23" y="16.4" class="st0" width="1.9" height="9.4"/>
<rect x="42.8" y="16.4" class="st0" width="1.8" height="9.4"/>
<rect x="32.8" y="16.4" class="st0" width="1.8" height="9.4"/>
<rect x="19.2" y="24.9" class="st0" width="29.3" height="1.9"/>
<rect x="12.6" y="73.5" class="st0" width="42.5" height="1.8"/>
<rect x="19.2" y="15.5" class="st0" width="29.3" height="1.8"/>
<path class="st0" d="M24.9,15.5h17.8c-0.5-4.9-4.9-8.5-9.8-8C28.6,8,25.3,11.3,24.9,15.5 M44.6,17.3H23v-0.9
	c0.2-6,5.2-10.6,11.1-10.5c5.7,0.2,10.3,4.8,10.5,10.5L44.6,17.3z"/>
</svg>
