<?xml version="1.0" encoding="utf-8"?>
<!-- Generator: Adobe Illustrator 20.1.0, SVG Export Plug-In . SVG Version: 6.00 Build 0)  -->
<!DOCTYPE svg PUBLIC "-//W3C//DTD SVG 1.1//EN" "http://www.w3.org/Graphics/SVG/1.1/DTD/svg11.dtd">
<svg version="1.1" id="_x36_b6ad9e8-dcb6-433b-b4f9-5196b0d9b9c4"
	 xmlns="http://www.w3.org/2000/svg" xmlns:xlink="http://www.w3.org/1999/xlink" x="0px" y="0px" viewBox="0 0 66.3 79"
	 style="enable-background:new 0 0 66.3 79;" xml:space="preserve">
<style type="text/css">
	.st0{fill:#FFFFFF;}
</style>
<title>Plan de travail 1 copie 6</title>
<path class="st0" d="M35.8,61.4l10.6-12.7c1.8-1.1,11.8-7.4,12.9-12.7l-2.1-0.4c-0.3,1.2-1,2.3-1.8,3.2V31l5.5-5.8l-1.6-1.4l-4.7,5
	L51,21.7l-1.9,1l4.2,8.2v10c-2.2,2-4.7,3.8-7.2,5.5l-4-7.4V29h-2.2v10.5l4.5,8.2L33.6,60.6v8.3H21.5V71H48v-2.1H35.8V61.4z"/>
<polygon class="st0" points="50.1,37.8 49,36 43.5,39.1 44.5,40.9 "/>
<polygon class="st0" points="54,53 46.6,50.4 45.2,52.2 54.5,55.5 66.3,45.1 64.9,43.5 "/>
<polygon class="st0" points="16.2,35.4 7.7,39 5.9,37.2 9.2,31.5 7.3,30.4 4.4,35.5 1.6,32.4 0,33.8 7.1,41.6 17.2,37.3 "/>
<polygon class="st0" points="29.5,49.7 33.6,52.5 33.6,58.6 35.8,56.3 35.8,51.4 35.8,51.4 35,27.5 42.5,19.7 51.2,17.5 50.7,15.4 
	44,17.1 42,9.7 40,10.2 41.9,17.6 41.3,17.8 34.4,25 32.7,19.2 36.5,9.7 34.5,8.9 31.3,17.1 23.7,7.9 22,9.3 30.6,19.6 32.8,27.3 
	33.6,49.9 27.6,45.8 27.6,34.2 23.8,26.6 21.9,27.6 25.4,34.8 25.4,44.4 24,43.4 16.3,28.4 10,23.7 8.7,25.4 14.6,29.8 22.4,44.8 
	27.7,48.5 24.2,51.8 20.9,51.8 16.7,44.4 14.8,45.5 18.5,51.8 13,51.8 13,53.9 25.1,53.9 "/>
</svg>
