<svg id="4222095d-98de-42d5-9f1f-cd455d69c4f7" data-name="Calque 1" xmlns="http://www.w3.org/2000/svg" viewBox="0 0 66.34 78.98"><defs><style>.\30 3c4ec52-f99f-48b3-84e0-28d8af8cd3bc{fill:#00005f;}</style></defs><title>Plan de travail 1 copie 3</title><path class="03c4ec52-f99f-48b3-84e0-28d8af8cd3bc" d="M35.69,65.09a2.42,2.42,0,1,1-2.42-2.42,2.42,2.42,0,0,1,2.42,2.42M24.92,56.5h7.4v4.58a4.12,4.12,0,0,0,0,8V78H34V69.15A4.12,4.12,0,0,0,34,61V56.5h7.4V54.79H24.92Z"/><path class="03c4ec52-f99f-48b3-84e0-28d8af8cd3bc" d="M42,48.59a19.41,19.41,0,0,1-17.6,0,16.88,16.88,0,0,1-4.12-2.85H46.09A16.88,16.88,0,0,1,42,48.59M31.25,9.16l1.93-5.22,1.93,5.22ZM16.72,19.23l3.76-5v4.81s0,.07,0,.1Zm29.15-.17V14.24l3.76,5-3.76-.08v-.1M46,20.86l7.07.14-9-11.88v9.93c0,3.91,2.07,7,3.43,9,2.53,3.72,3.34,7.66,2.36,11.4A13,13,0,0,1,47.64,44H34V10.87h3.55L33.18-1,28.8,10.87h3.52V44H18.7a12.94,12.94,0,0,1-2.31-4.61c-1-3.74-.17-7.68,2.36-11.4,1.37-2,3.43-5.05,3.43-9V9.13L13.23,21l7.07-.14a16.66,16.66,0,0,1-3,6.19c-2.81,4.14-3.71,8.56-2.6,12.8a16.44,16.44,0,0,0,8.87,10.28,21.12,21.12,0,0,0,19.12,0A16.44,16.44,0,0,0,51.6,39.85c1.11-4.23.21-8.66-2.6-12.8a16.68,16.68,0,0,1-3-6.19"/></svg>