<svg id="8f81844d-5aed-4e01-a142-3128506bb2c6" data-name="Calque 1" xmlns="http://www.w3.org/2000/svg" viewBox="0 0 66.34 78.98"><defs><style>.\33 41b478f-d6bc-4f5b-978f-7e75600e260a{fill:#00005f;}</style></defs><title>Plan de travail 1 copie 4</title><path class="341b478f-d6bc-4f5b-978f-7e75600e260a" d="M44.16,73.51l.18-25.15-2.2,0L42,68.06c-5-4-15.18-9.05-16-9.44l-.7-.42,5.56-9.83L29,47.28,23.5,57a27.61,27.61,0,0,1-9.09-11.17l10.25-4.47-.88-2L13.6,43.78a27.82,27.82,0,0,1-.91-15.6l8.6,2.5.61-2.11-8.64-2.51a27.78,27.78,0,0,1,2.3-5.27,21.86,21.86,0,0,1,5.8-6.65L26.14,21l1.8-1.26L23.19,12.9A22.14,22.14,0,0,1,36,9.67l-.62,6.17,2.19.22.62-6.16a21.88,21.88,0,0,1,7.4,2.58,17.3,17.3,0,0,1,3.34,2.46L45.2,18.72l1.57,1.53,3.61-3.71a17.4,17.4,0,0,1,1.73,19.62,13.7,13.7,0,0,1-18.64,5.17,10.74,10.74,0,0,1-4.05-14.62,8.37,8.37,0,0,1,11.39-3.16,6.48,6.48,0,0,1,2.44,8.82,5,5,0,0,1-6.75,1.87,3.75,3.75,0,0,1-1.42-5.1l-1.91-1.08a6,6,0,0,0,2.24,8.1,7.16,7.16,0,0,0,9.75-2.7,8.67,8.67,0,0,0-3.28-11.81,10.57,10.57,0,0,0-14.39,4,12.94,12.94,0,0,0,4.88,17.61,15.89,15.89,0,0,0,21.64-6,19.59,19.59,0,0,0-7.4-26.67,24.22,24.22,0,0,0-33,9.14A30,30,0,0,0,25,60.55l.06,0c.14.07,14,6.91,17.2,10.69Z"/></svg>