<svg id="6b6ad9e8-dcb6-433b-b4f9-5196b0d9b9c4" data-name="Calque 1" xmlns="http://www.w3.org/2000/svg" viewBox="0 0 66.34 78.98"><defs><style>.ca3bfccf-6e3d-47ab-8f40-ec8ebde3fa82{fill:#00005f;}</style></defs><title>Plan de travail 1 copie 6</title><path class="ca3bfccf-6e3d-47ab-8f40-ec8ebde3fa82" d="M35.78,61.4,46.39,48.72C48.17,47.64,58.23,41.34,59.33,36l-2.1-.43a7.89,7.89,0,0,1-1.8,3.2V31l5.49-5.77L59.37,23.8l-4.74,5L51,21.66l-1.91,1,4.23,8.24V40.94a54.77,54.77,0,0,1-7.21,5.46l-4-7.41V29H39.94V39.53l4.46,8.24L33.64,60.62v8.3H21.53v2.13H48.05V68.93H35.78Z"/><polygon class="ca3bfccf-6e3d-47ab-8f40-ec8ebde3fa82" points="50.06 37.82 49.02 35.97 43.46 39.07 44.51 40.93 50.06 37.82"/><polygon class="ca3bfccf-6e3d-47ab-8f40-ec8ebde3fa82" points="54.02 53.03 46.63 50.42 45.15 52.16 54.48 55.46 66.34 45.14 64.93 43.53 54.02 53.03"/><polygon class="ca3bfccf-6e3d-47ab-8f40-ec8ebde3fa82" points="16.18 35.39 7.68 39.05 5.95 37.16 9.19 31.48 7.33 30.43 4.43 35.49 1.58 32.36 0 33.8 7.12 41.62 17.21 37.26 16.18 35.39"/><polygon class="ca3bfccf-6e3d-47ab-8f40-ec8ebde3fa82" points="29.55 49.73 33.63 52.51 33.63 58.62 35.77 56.29 35.77 51.39 35.76 51.37 34.98 27.52 42.45 19.69 51.23 17.47 50.7 15.4 43.95 17.11 42.04 9.69 39.97 10.22 41.87 17.64 41.33 17.77 34.4 25.02 32.72 19.19 36.51 9.67 34.52 8.89 31.26 17.07 23.67 7.93 22.02 9.29 30.62 19.65 32.83 27.27 33.57 49.88 27.58 45.81 27.58 34.25 23.81 26.63 21.89 27.58 25.44 34.75 25.44 44.36 24.01 43.39 16.3 28.43 10.01 23.69 8.72 25.39 14.62 29.83 22.36 44.85 27.74 48.5 24.25 51.76 20.92 51.76 16.66 44.4 14.81 45.46 18.45 51.76 12.99 51.76 12.99 53.89 25.1 53.89 29.55 49.73"/></svg>