<svg id="40932bc8-9dc4-4118-8e5c-a3b7049c4eba" data-name="Calque 1" xmlns="http://www.w3.org/2000/svg" viewBox="0 0 66.34 78.98"><defs><style>.d1d91924-7a79-4938-a494-a2d3336b30a9{fill:#00005f;}</style></defs><title>Plan de travail 1 copie 2</title><path class="d1d91924-7a79-4938-a494-a2d3336b30a9" d="M24.74,26.73l-1,12.2L43.51,33.5l-.58-6.77ZM21.62,41.41,23,24.88H44.62l.86,10Z"/><path class="d1d91924-7a79-4938-a494-a2d3336b30a9" d="M22.35,54.53l-1,11.68,24.4-6.68-1-11.14ZM19.27,68.69l1.34-15.61L46.44,46,47.72,60.9Z"/><path class="d1d91924-7a79-4938-a494-a2d3336b30a9" d="M20.72,73.5H46.94l-1-12.11L21.17,68.17ZM49,75.36H18.7l.74-8.63L47.56,59Z"/><path class="d1d91924-7a79-4938-a494-a2d3336b30a9" d="M23.52,40.89l-1,11.68,22.11-6.05-1-11.14ZM20.45,55.05l1.34-15.6L45.32,33,46.6,47.89Z"/><rect class="d1d91924-7a79-4938-a494-a2d3336b30a9" x="22.96" y="16.39" width="1.85" height="9.41"/><rect class="d1d91924-7a79-4938-a494-a2d3336b30a9" x="42.78" y="16.39" width="1.85" height="9.41"/><rect class="d1d91924-7a79-4938-a494-a2d3336b30a9" x="32.83" y="16.39" width="1.85" height="9.41"/><rect class="d1d91924-7a79-4938-a494-a2d3336b30a9" x="19.2" y="24.88" width="29.27" height="1.85"/><rect class="d1d91924-7a79-4938-a494-a2d3336b30a9" x="12.57" y="73.5" width="42.52" height="1.85"/><rect class="d1d91924-7a79-4938-a494-a2d3336b30a9" x="19.2" y="15.46" width="29.27" height="1.85"/><path class="d1d91924-7a79-4938-a494-a2d3336b30a9" d="M24.86,15.46h17.8a8.95,8.95,0,0,0-17.8,0m19.69,1.85H23v-.92a10.8,10.8,0,0,1,21.59,0Z"/></svg>