<svg id="b2f89a6d-cbe2-496f-8302-d801065e9e1c" data-name="Calque 1" xmlns="http://www.w3.org/2000/svg" viewBox="0 0 66.34 78.98"><defs><style>.\34 303eee4-069c-4e6a-b79f-237aa01389ec{fill:#00005f;}</style></defs><title>Plan de travail 1 copie</title><path class="4303eee4-069c-4e6a-b79f-237aa01389ec" d="M49.45,69H15.5V62.52a9.85,9.85,0,0,1,9.88-9.8H39.56a9.85,9.85,0,0,1,9.88,9.8ZM23.63,51v-3.2H41.32V51H23.63Zm6.76-13.38A16.79,16.79,0,1,1,46.28,11.36l-2.17,1.35A14.31,14.31,0,1,0,32.42,35.22H33.7V46.14H31.14v-8.4ZM51.16,62.52a11.53,11.53,0,0,0-8.13-11V46.14H35.41V33.53h-3A12.55,12.55,0,1,1,43.14,14.32l.46.72,5.06-3.16-.46-.72A18.58,18.58,0,1,0,29.43,39.22v6.92H21.92v5.42a11.53,11.53,0,0,0-8.13,11v8.21H51.16Z"/><rect class="4303eee4-069c-4e6a-b79f-237aa01389ec" x="11.38" y="72.81" width="42.26" height="1.69"/><path class="4303eee4-069c-4e6a-b79f-237aa01389ec" d="M22.78,62.51a2.7,2.7,0,1,1,2.72-2.7,2.72,2.72,0,0,1-2.72,2.7m0-7.1a4.4,4.4,0,1,0,4.43,4.4,4.42,4.42,0,0,0-4.43-4.4"/></svg>