<svg id="ddc468a8-b737-428b-9ab8-29ad966e097a" data-name="Calque 1" xmlns="http://www.w3.org/2000/svg" xmlns:xlink="http://www.w3.org/1999/xlink" viewBox="0 0 66.34 78.98"><defs><style>.\30 911d29e-b92b-41b7-9f33-1bc3da20a015{fill:none;}.adb4f33a-320c-4c07-bf22-bb99f0c34aff{clip-path:url(#1564eb1f-b725-49c3-947d-f8ac9996cc40);}.e781c6a5-e9d0-4cf6-936d-96225fdbe220{fill:#00005f;}</style><clipPath id="1564eb1f-b725-49c3-947d-f8ac9996cc40"><rect class="0911d29e-b92b-41b7-9f33-1bc3da20a015" x="1.48" y="5.45" width="64.69" height="68.08"/></clipPath></defs><title>Plan de travail 1</title><g class="adb4f33a-320c-4c07-bf22-bb99f0c34aff"><path class="e781c6a5-e9d0-4cf6-936d-96225fdbe220" d="M8.28,49.33a.91.91,0,0,1,.9.79,24.71,24.71,0,0,0,49.05-.25.9.9,0,0,1,1.54-.53l3.08,3.08L64,51.27l-6.51-6.51-7.25,5,.93,1.34,2.83-2a.9.9,0,0,1,1.41.87A21.88,21.88,0,0,1,36.08,68.81a.9.9,0,0,1-1-.9V29.64H32.3V67.91a.9.9,0,0,1-.3.67.91.91,0,0,1-.7.23,21.84,21.84,0,0,1-19.36-19,.9.9,0,0,1,1.41-.86l3.14,2.17.93-1.34-7.24-5L3.67,51.27l1.15,1.15L7.64,49.6a.9.9,0,0,1,.64-.26m25.41,24.2a26.57,26.57,0,0,1-26-21.4L5.46,54.34a.9.9,0,0,1-1.28,0L1.75,51.91a.9.9,0,0,1,0-1.28l7.68-7.68a.9.9,0,0,1,1.15-.1l8.61,5.95A.9.9,0,0,1,19.42,50l-2,2.83a.91.91,0,0,1-1.26.23l-2.1-1.45A20,20,0,0,0,30.49,66.88V28.73a.9.9,0,0,1,.9-.9H36a.9.9,0,0,1,.9.9V66.88a20.07,20.07,0,0,0,16.32-15l-1.75,1.21a.91.91,0,0,1-1.26-.23l-2-2.83a.91.91,0,0,1,.23-1.26l8.61-5.95a.9.9,0,0,1,1.15.1l7.68,7.68a.9.9,0,0,1,0,1.28l-2.43,2.43a.9.9,0,0,1-1.28,0l-2.45-2.45A26.51,26.51,0,0,1,33.69,73.53"/><path class="e781c6a5-e9d0-4cf6-936d-96225fdbe220" d="M33.69,11.85a1.41,1.41,0,1,0,1.41,1.41,1.41,1.41,0,0,0-1.41-1.41m0,4.62a3.21,3.21,0,1,1,3.21-3.21,3.22,3.22,0,0,1-3.21,3.21M32.3,23.24h2.78V19.75a.9.9,0,0,1,.6-.85,6,6,0,1,0-4,0,.9.9,0,0,1,.6.85ZM36,25H31.39a.9.9,0,0,1-.9-.9V20.36a7.8,7.8,0,1,1,6.4,0v3.79a.9.9,0,0,1-.9.9"/><path class="e781c6a5-e9d0-4cf6-936d-96225fdbe220" d="M23.7,27.83h20V25.05h-20Zm20.88,1.81H22.79a.9.9,0,0,1-.9-.9V24.15a.9.9,0,0,1,.9-.9H44.58a.9.9,0,0,1,.9.9v4.59a.9.9,0,0,1-.9.9"/></g></svg>