<svg xmlns="http://www.w3.org/2000/svg" viewBox="0 0 112.67 103.95"><defs><style>.\38 caa792d-5e89-4bfb-b65d-42fb1545cffd{fill:#1e2159;}</style></defs><title>Plan de travail 1 copie 2</title><g id="c245d14a-150d-4f85-8fa6-4622385cfb32" data-name="Calque 3"><path class="8caa792d-5e89-4bfb-b65d-42fb1545cffd" d="M72.43,72.52a2.54,2.54,0,1,1,0,3.6,2.54,2.54,0,0,1,0-3.6m-32-32a2.54,2.54,0,1,1,0-3.6,2.54,2.54,0,0,1,0,3.6m-3.6,32a2.54,2.54,0,1,1,0,3.6,2.54,2.54,0,0,1,0-3.6M72.43,36.94a2.54,2.54,0,1,1,0,3.6,2.54,2.54,0,0,1,0-3.6M31.29,54a2.54,2.54,0,1,1-2.54,2.54A2.54,2.54,0,0,1,31.29,54M81.6,54a2.54,2.54,0,1,1-2.54,2.54A2.54,2.54,0,0,1,81.6,54M56.45,33.91A2.54,2.54,0,1,1,59,31.37a2.54,2.54,0,0,1-2.54,2.54m0,45.23a2.54,2.54,0,1,1-2.54,2.54,2.54,2.54,0,0,1,2.54-2.54m0-6.62a16,16,0,1,0-16-16,16,16,0,0,0,16,16m0-36a20,20,0,1,1-20,20,20,20,0,0,1,20-20m0,50.67a30.7,30.7,0,1,0-30.7-30.7,30.73,30.73,0,0,0,30.7,30.7m0-65.37A34.68,34.68,0,1,1,21.77,56.53,34.72,34.72,0,0,1,56.45,21.85m49.93,19.86A6.3,6.3,0,0,1,112.67,48V65.26a6.3,6.3,0,0,1-6.29,6.3h-6.8A45.64,45.64,0,0,1,86.52,90.91v10.73a2,2,0,0,1-2,2H28.36a2,2,0,0,1-2-2V90.91A45.64,45.64,0,0,1,13.31,71.54h-7A6.3,6.3,0,0,1,0,65.25V48a6.3,6.3,0,0,1,6.29-6.3h7A45.88,45.88,0,0,1,41.52,13.36V6.45A6.3,6.3,0,0,1,47.81.16H65.07a6.3,6.3,0,0,1,6.29,6.29v6.91A45.88,45.88,0,0,1,99.64,41.71ZM45.5,6.45v5.73a45.54,45.54,0,0,1,21.88,0V6.45a2.31,2.31,0,0,0-2.31-2.31H47.81A2.31,2.31,0,0,0,45.5,6.45M6.29,67.56h5.84a45.41,45.41,0,0,1-.05-21.89H6.29A2.32,2.32,0,0,0,4,48V65.25a2.31,2.31,0,0,0,2.31,2.31m77,20.91a41.7,41.7,0,1,0-53.61,0A2,2,0,0,1,30.35,90v9.66H82.54V90a2,2,0,0,1,.71-1.52m25.44-23.21V48a2.32,2.32,0,0,0-2.31-2.31h-5.56a45.46,45.46,0,0,1-.06,21.89h5.62a2.32,2.32,0,0,0,2.31-2.32"/></g></svg>