<svg xmlns="http://www.w3.org/2000/svg" viewBox="0 0 112.67 103.95"><defs><style>.f4ccd63d-f87e-4920-a226-cb2308e8615b{fill:#1e2159;}</style></defs><title>Plan de travail 1 copie</title><g id="b9e9e66e-f564-484c-98bc-a9c8ca4be51b" data-name="Calque 2"><path class="f4ccd63d-f87e-4920-a226-cb2308e8615b" d="M56.4,91.28a3.25,3.25,0,1,1-3.25,3.25,3.25,3.25,0,0,1,3.25-3.25M84.24,79.74a3.25,3.25,0,1,1,0,4.6,3.25,3.25,0,0,1,0-4.6M99,48.67a3.25,3.25,0,1,1-3.26,3.25A3.25,3.25,0,0,1,99,48.67M28.56,24.05a3.25,3.25,0,1,1,0-4.6,3.25,3.25,0,0,1,0,4.6m60.22.08a3.25,3.25,0,1,1,0-4.6,3.25,3.25,0,0,1,0,4.6M56.4,12.52a3.25,3.25,0,1,1,3.25-3.25,3.25,3.25,0,0,1-3.25,3.25M13.71,48.67a3.25,3.25,0,1,1-3.25,3.25,3.26,3.26,0,0,1,3.25-3.25m22.2,29.5a33.19,33.19,0,0,0,41-.07,23.38,23.38,0,0,1-12.4-1.78,19.53,19.53,0,0,0-16.26,0,22.9,22.9,0,0,1-9.51,2,21.89,21.89,0,0,1-2.78-.19m45.93-5.48c.23-.11.48-.19.71-.29a33.2,33.2,0,0,0,6.13-12.62,19,19,0,0,0-5.19,1.53,23.6,23.6,0,0,1-19,0,19.54,19.54,0,0,0-16.26,0,22.88,22.88,0,0,1-9.51,2,23.25,23.25,0,0,1-9.53-2A19,19,0,0,0,24,59.78a33.18,33.18,0,0,0,6.15,12.64c.22.09.44.17.66.27a19.24,19.24,0,0,0,7.88,1.68,18.91,18.91,0,0,0,7.86-1.68,23.62,23.62,0,0,1,19.57,0,19.57,19.57,0,0,0,15.73,0m7.8-20.79a33.29,33.29,0,0,0-.78-7.14,19,19,0,0,0-5.36,1.54,23.59,23.59,0,0,1-19,0,19.54,19.54,0,0,0-16.26,0,22.88,22.88,0,0,1-9.51,2,23.24,23.24,0,0,1-9.53-2,19.05,19.05,0,0,0-5.33-1.54,32.86,32.86,0,0,0-.55,10.94,23.19,23.19,0,0,1,7.54,2,19.22,19.22,0,0,0,7.88,1.68,18.91,18.91,0,0,0,7.86-1.69,23.61,23.61,0,0,1,19.57,0,19.57,19.57,0,0,0,15.73,0,23.17,23.17,0,0,1,7.57-2,33.81,33.81,0,0,0,.22-3.8M56.34,18.6A33.35,33.35,0,0,0,24.91,40.9a23,23,0,0,1,5.89,1.79,19.23,19.23,0,0,0,7.88,1.68,18.91,18.91,0,0,0,7.86-1.69,23.6,23.6,0,0,1,19.57,0,19.56,19.56,0,0,0,15.73,0,23,23,0,0,1,5.92-1.79A33.35,33.35,0,0,0,56.34,18.6m0-4A37.28,37.28,0,1,1,19.06,51.9,37.32,37.32,0,0,1,56.34,14.62M23.9,79.82a3.25,3.25,0,1,1,0,4.6,3.25,3.25,0,0,1,0-4.6M56.34,99.66A47.76,47.76,0,1,0,8.58,51.9,47.81,47.81,0,0,0,56.34,99.66m0-99.5A51.74,51.74,0,1,1,4.6,51.9,51.79,51.79,0,0,1,56.34.16"/></g></svg>