<svg id="5e943de1-51fb-45a7-8a57-3d41c5591fad" data-name="Calque 1" xmlns="http://www.w3.org/2000/svg" viewBox="0 0 112.67 103.95"><defs><style>.\36 3673617-36d7-474d-849d-5bd21dc47a96{fill:#1e2159;}</style></defs><title>Plan de travail 1</title><path class="63673617-36d7-474d-849d-5bd21dc47a96" d="M56.34,54.15a4.23,4.23,0,1,0,4.23,4.23,4.24,4.24,0,0,0-4.23-4.23m22.8,6.22H64.3a8.12,8.12,0,0,1-.93,2.24l4.45,4.45A2,2,0,1,1,65,69.87l-4.45-4.44a8.2,8.2,0,0,1-2.24.93V81.18a2,2,0,0,1-4,0V66.35a8.22,8.22,0,0,1-2.23-.93l-4.44,4.44a2,2,0,0,1-2.81-2.82l4.45-4.44a8.12,8.12,0,0,1-.93-2.24H33.53a2,2,0,1,1,0-4H48.37a8.13,8.13,0,0,1,.93-2.24l-4.45-4.44a2,2,0,0,1,2.81-2.81l4.45,4.44a8.15,8.15,0,0,1,2.23-.93V35.58a2,2,0,1,1,4,0V50.41a8.18,8.18,0,0,1,2.24.93L65,46.9a2,2,0,0,1,2.81,2.82l-4.45,4.44a8.19,8.19,0,0,1,.93,2.23H79.14a2,2,0,0,1,0,4M56.34,29.12A29.26,29.26,0,1,0,85.6,58.38,29.3,29.3,0,0,0,56.34,29.12m0,62.51A33.25,33.25,0,1,1,89.58,58.38,33.28,33.28,0,0,1,56.34,91.63M68.62,15.43a12.41,12.41,0,0,0-24.58,0,44.79,44.79,0,0,1,24.58,0M40,16.83a16.38,16.38,0,0,1,32.76,0,44.67,44.67,0,1,1-32.76,0m16.38.87A40.69,40.69,0,1,0,97,58.38,40.73,40.73,0,0,0,56.34,17.7"/></svg>