<svg id="svg_sqooba_logo" data-name="svg_sqooba_logo" xmlns="http://www.w3.org/2000/svg" viewBox="0 0 484 171.21"><defs><style>.\30 89c4622-f8af-49c8-a421-978fd9dddb74{fill:white;}</style></defs><title>Sqooba Logo</title><path class="089c4622-f8af-49c8-a421-978fd9dddb74" d="M55.69,94.37c0-3.8-2-6.79-5.16-8.92A27.13,27.13,0,0,0,39.13,81.4a38,38,0,0,0-13.52.51c-6,1.37-11,4.28-12.66,8.67a11.52,11.52,0,0,0-.35,1.13v0a11.77,11.77,0,0,0,.76,7.91A10.35,10.35,0,0,0,19.18,105a12.43,12.43,0,0,0,1.21.37,83.25,83.25,0,0,0,13.2,1.6c6.85.49,13.9,1,19.61,3.09a27.47,27.47,0,0,1,2.66,1.13,20.76,20.76,0,0,1,10.57,11.28,20.37,20.37,0,0,1,0,14.2,22.71,22.71,0,0,1-.93,2.19c-3.56,7.21-11.69,11.76-21,13.66a54.46,54.46,0,0,1-19.51.31c-6.6-1.12-12.76-3.54-17.28-7.29A19.83,19.83,0,0,1,0,129.79H10.35a9.88,9.88,0,0,0,3.87,7.77c3,2.52,7.46,4.2,12.39,5a44,44,0,0,0,15.79-.23c6.41-1.3,11.79-4,13.81-8.11a10.28,10.28,0,0,0,.49-1.14,10.09,10.09,0,0,0,.07-7,10.58,10.58,0,0,0-5.47-5.66,16.5,16.5,0,0,0-1.61-.69c-4.34-1.59-10.67-2-16.82-2.49-5.38-.39-10.63-.77-15-1.88a22.11,22.11,0,0,1-2.23-.7A20.66,20.66,0,0,1,4,104,22.14,22.14,0,0,1,2.57,89.17h0A21,21,0,0,1,3.24,87c3-8.05,10.87-13.09,20.1-15.19a48.33,48.33,0,0,1,17.2-.67,37.57,37.57,0,0,1,15.81,5.75c5.87,4,9.69,9.82,9.69,17.46ZM387.32,33.71H402V19H387.32V33.71ZM360.55,17.88h12v-12h-12v12Zm6.67,21.27h11.95v-12H367.22v12Zm-20.1,10.32h11.95v-12H347.12v12ZM382.21,12h11.95V0H382.21V12Zm17.38,115.81a5.23,5.23,0,0,1,1-1.47,10.32,10.32,0,0,1,14.53,0,5.08,5.08,0,0,1,1,1.45,31,31,0,1,0,4.71-37.68l0,0a18.4,18.4,0,0,1-25.62.26c-.11-.09-.23-.2-.33-.31a30.9,30.9,0,1,0,4.7,37.7ZM402.42,83a7.92,7.92,0,0,0,2.37,1.53,8.27,8.27,0,0,0,6.19,0,8,8,0,0,0,2.58-1.75l.06-.05A41.26,41.26,0,0,1,484,111.91v39.7H473.65V139.24q-.84.95-1.73,1.84a41.23,41.23,0,0,1-64-7.13,41.24,41.24,0,0,1-76.11-22v-59h10.35V84.58q.83-.94,1.73-1.84a41.31,41.31,0,0,1,58.34,0l.21.22Zm-76.54,29.11A41.26,41.26,0,0,0,323,96.55a42,42,0,0,0-8.63-13.21A39.49,39.49,0,0,0,301.6,74a40.76,40.76,0,0,0-15.27-3.47,38.3,38.3,0,0,0-15.91,2.68,40.46,40.46,0,0,0-13.51,9.25,42.17,42.17,0,0,0-9.25,13.6,43.62,43.62,0,0,0-.28,31.59A40.87,40.87,0,0,0,256,140.93a38.71,38.71,0,0,0,28,12.49,38.27,38.27,0,0,0,15.91-2.68,40.38,40.38,0,0,0,13.51-9.11q12.49-12.49,12.49-29.56Zm-62.45,21.23a31.22,31.22,0,0,1-6.29-10.17,32.37,32.37,0,0,1-1.9-11.75,31.67,31.67,0,0,1,2.31-11.7A32.3,32.3,0,0,1,274.1,83.13,28.5,28.5,0,0,1,285.78,81a27.69,27.69,0,0,1,11.15,2.2,28.64,28.64,0,0,1,9.39,6.68,32.56,32.56,0,0,1,6.55,9.81,32.13,32.13,0,0,1,2.47,11.56,31.58,31.58,0,0,1-2.11,12.21A32.68,32.68,0,0,1,306.32,134a29.57,29.57,0,0,1-33.47,6.41,29.89,29.89,0,0,1-9.41-7.1Zm-24.12-21.23a41.37,41.37,0,0,0-2.89-15.52,42.13,42.13,0,0,0-8.63-13.21A39.52,39.52,0,0,0,215,74a40.73,40.73,0,0,0-15.26-3.47,38.26,38.26,0,0,0-15.91,2.68,40.4,40.4,0,0,0-13.51,9.25,42.17,42.17,0,0,0-9.25,13.6,41.6,41.6,0,0,0-3.1,16.1,42.12,42.12,0,0,0,2.82,15.49,40.94,40.94,0,0,0,8.55,13.23,38.71,38.71,0,0,0,28,12.49,38.24,38.24,0,0,0,15.91-2.68,40.32,40.32,0,0,0,13.51-9.11q12.49-12.49,12.49-29.56Zm-62.45,21.23a31.3,31.3,0,0,1-6.29-10.17,32.37,32.37,0,0,1-1.9-11.75A31.78,31.78,0,0,1,171,99.67a32.29,32.29,0,0,1,16.54-16.54A28.47,28.47,0,0,1,199.22,81a27.69,27.69,0,0,1,11.15,2.2,28.75,28.75,0,0,1,9.39,6.68,32.56,32.56,0,0,1,6.55,9.81,32.13,32.13,0,0,1,2.47,11.56,31.78,31.78,0,0,1-2.11,12.21A32.68,32.68,0,0,1,219.76,134a29.57,29.57,0,0,1-33.47,6.41,29.91,29.91,0,0,1-9.42-7.1Zm-24.39-20.68v-.55a38.66,38.66,0,0,0-2.82-15.8,41.09,41.09,0,0,0-9.39-13.62,42.39,42.39,0,0,0-13.76-9.25,39,39,0,0,0-16.07-2.68,38.72,38.72,0,0,0-28,12.49,41.06,41.06,0,0,0-8.56,13.21A43.82,43.82,0,0,0,74.12,128a43.42,43.42,0,0,0,9.25,13.71,40.18,40.18,0,0,0,13.53,9.11,38.57,38.57,0,0,0,16,2.68,39.28,39.28,0,0,0,15.94-3.84,42.14,42.14,0,0,0,13.21-10.18v31.67h10.41V112.62ZM89.9,91a30.49,30.49,0,0,1,9.46-7.17,28,28,0,0,1,11.22-2.68,27.09,27.09,0,0,1,22.2,9,32.9,32.9,0,0,1,6.91,10.55,31.69,31.69,0,0,1,2.1,12.21,30.61,30.61,0,0,1-2.36,11.56,32.47,32.47,0,0,1-6.52,9.81,27.48,27.48,0,0,1-20.68,8.88,30.56,30.56,0,0,1-11.68-2.2,30.11,30.11,0,0,1-9.83-6.68A30.56,30.56,0,0,1,84,124.44a31.57,31.57,0,0,1-2.31-11.68,32,32,0,0,1,1.9-11.68A31.5,31.5,0,0,1,89.9,91Z"/></svg>