<svg id="67044cad-2370-45cd-aab2-a6099c461996" data-name="Calque 1" xmlns="http://www.w3.org/2000/svg" viewBox="0 0 56.69 57.05"><defs><style>.\33 c13c027-8c2a-4ad5-a1e7-2a45a400dbc0{fill:#fff;}</style></defs><title>Plan de travail 2</title><path class="3c13c027-8c2a-4ad5-a1e7-2a45a400dbc0" d="M20.68,12.55h5.46V7.09H20.68v5.46Zm-10-5.9h4.45V2.21H10.71V6.66Zm2.48,7.92h4.45V10.13H13.2v4.45ZM5.71,18.42h4.45V14H5.71v4.45Zm13.07-14h4.45V0H18.78V4.45Zm6.47,43.13a2,2,0,0,1,.38-.55,3.85,3.85,0,0,1,5.41,0,1.92,1.92,0,0,1,.38.54,11.53,11.53,0,1,0,1.76-14l0,0a6.85,6.85,0,0,1-9.54.1l-.12-.11a11.51,11.51,0,1,0,1.75,14ZM26.31,30.9a3,3,0,0,0,.88.57,3.07,3.07,0,0,0,2.3,0,3,3,0,0,0,1-.65l0,0A15.37,15.37,0,0,1,56.69,41.68V56.47H52.84V51.86c-.21.24-.42.46-.64.69a15.36,15.36,0,0,1-23.84-2.66A15.36,15.36,0,0,1,0,41.68v-22H3.86V31.5c.21-.23.42-.46.64-.68a15.39,15.39,0,0,1,21.73,0l.08.08Z"/></svg>