<svg xmlns="http://www.w3.org/2000/svg" viewBox="0 0 40 25.23"><defs><style>.\33 87f33f7-185f-458f-8f65-09901db1f620{fill:#01034d;}</style></defs><title>top</title><g id="5ed1d379-38ed-4477-949a-5aca5a192745" data-name="Capa 1"><path class="387f33f7-185f-458f-8f65-09901db1f620" d="M13.84,25.23a.49.49,0,0,1-.19,0L.3,19.66A.49.49,0,0,1,.07,19L10.49,1.65a3.53,3.53,0,0,1,3-1.65A3.19,3.19,0,0,1,14.7.24l2.51,1a3.51,3.51,0,0,1,2,4L14.31,24.86a.49.49,0,0,1-.47.37ZM1.19,19l12.31,5.1L18.25,5a2.51,2.51,0,0,0-1.41-2.84l-2.51-1A2.22,2.22,0,0,0,13.47,1a2.54,2.54,0,0,0-2.15,1.18L1.19,19Zm10,2.35a.48.48,0,0,1-.19,0,.49.49,0,0,1-.26-.63l2.23-5.39a.49.49,0,1,1,.9.37L11.6,21a.49.49,0,0,1-.45.3Zm1.48-10.55a2,2,0,0,1-.77-.15,2.1,2.1,0,0,1-1.19-1.34,2.76,2.76,0,0,1,.1-1.89l1.11-2.69a2.58,2.58,0,0,1,2.29-1.66,2,2,0,0,1,.77.15,2.1,2.1,0,0,1,1.19,1.34A2.76,2.76,0,0,1,16,6.43L14.92,9.12a2.58,2.58,0,0,1-2.29,1.66ZM14.17,4a1.6,1.6,0,0,0-1.39,1.07L11.67,7.77A1.78,1.78,0,0,0,11.6,9a1.14,1.14,0,0,0,.64.74,1,1,0,0,0,.39.08A1.61,1.61,0,0,0,14,8.75l1.11-2.69a1.79,1.79,0,0,0,.07-1.22,1.14,1.14,0,0,0-.64-.74A1,1,0,0,0,14.17,4Zm-6,16.07a.49.49,0,0,1-.45-.67L9.93,14a.49.49,0,1,1,.9.37L8.59,19.79a.49.49,0,0,1-.45.3Zm-3-1.24a.49.49,0,0,1-.45-.67l2.23-5.39a.49.49,0,1,1,.9.37L5.59,18.55a.49.49,0,0,1-.45.3Zm21,6.38a.49.49,0,0,1-.47-.37L20.81,5.25a3.51,3.51,0,0,1,2-4l2.51-1A3.19,3.19,0,0,1,26.53,0a3.53,3.53,0,0,1,3,1.65L39.93,19a.49.49,0,0,1-.23.7L26.35,25.19a.49.49,0,0,1-.19,0ZM26.53,1a2.22,2.22,0,0,0-.86.16l-2.51,1A2.51,2.51,0,0,0,21.75,5L26.5,24.08,38.81,19,28.68,2.15A2.54,2.54,0,0,0,26.53,1Zm.84,9.81a2.58,2.58,0,0,1-2.29-1.66L24,6.43A2.42,2.42,0,0,1,25.06,3.2a2,2,0,0,1,.77-.15,2.58,2.58,0,0,1,2.29,1.66L29.23,7.4a2.76,2.76,0,0,1,.1,1.89,2.1,2.1,0,0,1-1.19,1.34,2,2,0,0,1-.77.15ZM25.83,4a1,1,0,0,0-.4.08,1.46,1.46,0,0,0-.56,2L26,8.75a1.61,1.61,0,0,0,1.39,1.07,1,1,0,0,0,.39-.08A1.14,1.14,0,0,0,28.4,9a1.79,1.79,0,0,0-.07-1.22L27.22,5.09A1.61,1.61,0,0,0,25.83,4Zm6,16.07a.49.49,0,0,1-.45-.3l-2.23-5.39a.49.49,0,1,1,.9-.37l2.23,5.39a.49.49,0,0,1-.45.67Zm3-1.24a.49.49,0,0,1-.45-.3l-2.23-5.39a.49.49,0,0,1,.9-.37l2.23,5.39a.49.49,0,0,1-.45.67Zm-6,2.49a.48.48,0,0,1-.45-.3l-2.23-5.39a.49.49,0,1,1,.9-.37l2.23,5.39a.48.48,0,0,1-.45.67Z"/></g></svg>